<?xml version="1.0" standalone="no"?>
<!DOCTYPE svg PUBLIC "-//W3C//DTD SVG 20010904//EN"
 "http://www.w3.org/TR/2001/REC-SVG-20010904/DTD/svg10.dtd">
<svg version="1.0" xmlns="http://www.w3.org/2000/svg"
 width="512.000000pt" height="512.000000pt" viewBox="0 0 512.000000 512.000000"
 preserveAspectRatio="xMidYMid meet">
<metadata>
Created by potrace 1.11, written by Peter Selinger 2001-2013
</metadata>
<g transform="translate(0.000000,512.000000) scale(0.100000,-0.100000)"
fill="#000000" stroke="none">
<path d="M2060 5109 c-14 -6 -52 -36 -85 -68 -228 -221 -585 -407 -973 -507
-218 -56 -402 -82 -661 -93 -162 -6 -163 -7 -187 -34 l-24 -28 0 -900 c0 -957
4 -1050 51 -1298 101 -528 315 -976 659 -1375 304 -354 758 -655 1187 -787
l63 -20 77 24 c183 57 383 151 566 266 159 99 249 169 240 184 -4 7 -32 44
-62 82 -70 90 -154 265 -188 391 -25 90 -27 115 -27 284 -1 160 3 197 22 275
23 91 75 222 120 303 l26 45 36 -109 c20 -60 51 -143 69 -184 63 -148 209
-407 197 -350 -32 151 -40 417 -17 565 27 175 90 373 166 525 86 170 152 261
372 513 121 138 159 175 169 166 11 -9 126 -207 177 -304 15 -28 16 42 17 837
l0 867 -24 28 c-24 28 -25 28 -183 34 -228 9 -413 34 -613 80 -390 91 -780
288 -1025 520 -57 54 -94 80 -112 78 -4 0 -19 -5 -33 -10z m26 -4926 c-7 -8
-202 69 -321 127 -150 73 -228 120 -380 231 -624 454 -1013 1174 -1075 1989
-5 75 -10 489 -10 938 l0 802 74 0 c171 0 474 44 691 100 365 95 736 282 970
489 l50 45 3 -2359 c1 -1297 0 -2360 -2 -2362z"/>
</g>
</svg>
